<?xml version="1.0" encoding="utf-8"?><svg xmlns="http://www.w3.org/2000/svg" xmlns:xlink="http://www.w3.org/1999/xlink"><symbol viewBox="0 0 448 512" id="astronaut" xmlns="http://www.w3.org/2000/svg"><!--! Font Awesome Free 6.0.0 by @fontawesome - https://fontawesome.com License - https://fontawesome.com/license/free (Icons: CC BY 4.0, Fonts: SIL OFL 1.1, Code: MIT License) Copyright 2022 Fonticons, Inc.--><path d="M176 448c-8.7 0-16 7.3-16 16v48h32v-48c0-8.7-7.2-16-16-16zm96 0c-8.75 0-16 7.25-16 16s7.25 16 16 16 16-7.25 16-16-7.2-16-16-16zM164 172l8.205 24.62c1.215 3.645 6.375 3.645 7.59 0L188 172l24.62-8.203c3.646-1.219 3.646-6.375 0-7.594L188 148l-8.2-24.6c-1.215-3.648-6.375-3.648-7.59 0L164 148l-24.6 8.2c-3.646 1.219-3.646 6.375 0 7.594L164 172zm172.1 143.4C304 338.6 265.1 352 224 352s-80.03-13.43-112.1-36.59C46.55 340.2 0 403.3 0 477.3 0 496.5 15.52 512 34.66 512H128v-64c0-17.75 14.25-32 32-32h128c17.75 0 32 14.25 32 32v64h93.34c19.16 0 34.66-15.5 34.66-34.7 0-74-46.5-137.1-111.9-161.9zM64 224h13.5c24.8 56.5 80.9 96 146.5 96s121.8-39.5 146.5-96H384c8.75 0 16-7.25 16-16v-96c0-8.7-7.2-16-16-16h-13.5C345.8 39.5 289.6 0 224 0S102.3 39.5 77.5 96H64c-8.75 0-16 7.3-16 16v96c0 8.8 7.25 16 16 16zm40-88c0-22.1 21.5-40 48-40h144c26.5 0 48 17.88 48 40v24c0 53-43 96-96 96h-48c-53 0-96-43-96-96v-24z"/></symbol><symbol viewBox="0 0 512 512" id="circle-arrow-up" xmlns="http://www.w3.org/2000/svg"><!--! Font Awesome Free 6.0.0 by @fontawesome - https://fontawesome.com License - https://fontawesome.com/license/free (Icons: CC BY 4.0, Fonts: SIL OFL 1.1, Code: MIT License) Copyright 2022 Fonticons, Inc.--><path d="M256 0C114.6 0 0 114.6 0 256s114.6 256 256 256 256-114.6 256-256S397.4 0 256 0zm126.6 254.6c-12.5 12.5-32.75 12.5-45.25 0L288 205.3V384c0 17.69-14.33 32-32 32s-32-14.31-32-32V205.3l-49.4 49.3c-12.5 12.5-32.75 12.5-45.25 0s-12.5-32.75 0-45.25l103.1-103.1C241.3 97.4 251.1 96 256 96c4.881 0 14.65 1.391 22.65 9.398l103.1 103.1c13.35 13.402 13.35 33.602.85 46.102z"/></symbol><symbol viewBox="0 0 512 512" id="envelope" xmlns="http://www.w3.org/2000/svg"><!--! Font Awesome Free 6.0.0 by @fontawesome - https://fontawesome.com License - https://fontawesome.com/license/free (Icons: CC BY 4.0, Fonts: SIL OFL 1.1, Code: MIT License) Copyright 2022 Fonticons, Inc.--><path d="M448 64H64C28.65 64 0 92.65 0 128v256c0 35.35 28.65 64 64 64h384c35.35 0 64-28.65 64-64V128c0-35.35-28.7-64-64-64zM64 112h384c8.822 0 16 7.178 16 16v22.16l-166.8 138.1c-23.19 19.28-59.34 19.27-82.47.016L48 150.2V128c0-8.8 7.18-16 16-16zm384 288H64c-8.822 0-16-7.178-16-16V212.7l136.1 113.4c20.2 16.7 45.7 25.9 71.9 25.9s51.75-9.188 71.97-25.98L464 212.7V384c0 8.8-7.2 16-16 16z"/></symbol><symbol viewBox="0 0 512 512" id="folder" xmlns="http://www.w3.org/2000/svg"><!--! Font Awesome Free 6.0.0 by @fontawesome - https://fontawesome.com License - https://fontawesome.com/license/free (Icons: CC BY 4.0, Fonts: SIL OFL 1.1, Code: MIT License) Copyright 2022 Fonticons, Inc.--><path d="M464 96H272l-64-64H48C21.5 32 0 53.5 0 80v80h512v-16c0-26.5-21.5-48-48-48zM0 432c0 26.5 21.5 48 48 48h416c26.5 0 48-21.5 48-48V192H0v240z"/></symbol><symbol viewBox="0 0 480 512" id="github-alt" xmlns="http://www.w3.org/2000/svg"><!--! Font Awesome Free 6.0.0 by @fontawesome - https://fontawesome.com License - https://fontawesome.com/license/free (Icons: CC BY 4.0, Fonts: SIL OFL 1.1, Code: MIT License) Copyright 2022 Fonticons, Inc.--><path d="M186.1 328.7c0 20.9-10.9 55.1-36.7 55.1s-36.7-34.2-36.7-55.1 10.9-55.1 36.7-55.1 36.7 34.2 36.7 55.1zM480 278.2c0 31.9-3.2 65.7-17.5 95-37.9 76.6-142.1 74.8-216.7 74.8-75.8 0-186.2 2.7-225.6-74.8-14.6-29-20.2-63.1-20.2-95 0-41.9 13.9-81.5 41.5-113.6-5.2-15.8-7.7-32.4-7.7-48.8 0-21.5 4.9-32.3 14.6-51.8 45.3 0 74.3 9 108.8 36 29-6.9 58.8-10 88.7-10 27 0 54.2 2.9 80.4 9.2 34-26.7 63-35.2 107.8-35.2 9.8 19.5 14.6 30.3 14.6 51.8 0 16.4-2.6 32.7-7.7 48.2 27.5 32.4 39 72.3 39 114.2zm-64.3 50.5c0-43.9-26.7-82.6-73.5-82.6-18.9 0-37 3.4-56 6-14.9 2.3-29.8 3.2-45.1 3.2-15.2 0-30.1-.9-45.1-3.2-18.7-2.6-37-6-56-6-46.8 0-73.5 38.7-73.5 82.6 0 87.8 80.4 101.3 150.4 101.3h48.2c70.3 0 150.6-13.4 150.6-101.3zm-82.6-55.1c-25.8 0-36.7 34.2-36.7 55.1s10.9 55.1 36.7 55.1 36.7-34.2 36.7-55.1-10.9-55.1-36.7-55.1z"/></symbol><symbol viewBox="0 0 512 512" id="paper-plane" xmlns="http://www.w3.org/2000/svg"><!--! Font Awesome Free 6.0.0 by @fontawesome - https://fontawesome.com License - https://fontawesome.com/license/free (Icons: CC BY 4.0, Fonts: SIL OFL 1.1, Code: MIT License) Copyright 2022 Fonticons, Inc.--><path d="M501.6 4.186a24.105 24.105 0 00-25.44-1.063L12.12 267.1C4.184 271.7-.504 280.3.043 289.4c.547 9.125 6.234 17.16 14.66 20.69l153.3 64.38v113.5c0 8.781 4.797 16.84 12.5 21.06C184.1 511 188 512 191.1 512c4.516 0 9.038-1.281 12.99-3.812l111.2-71.46 98.56 41.4a24.044 24.044 0 009.297 1.875c4.078 0 8.141-1.031 11.78-3.094a23.936 23.936 0 0011.95-17.38l64-432C513.1 18.44 509.1 9.373 501.6 4.186zM369.3 119.2L182.2 328.1 78.23 284.7 369.3 119.2zM215.1 444v-49.36l46.45 19.51L215.1 444zm189.7-22.1l-176.6-74.19 224.6-249.5-48 323.69z"/></symbol><symbol viewBox="0 0 448 512" id="whatsapp" xmlns="http://www.w3.org/2000/svg"><!--! Font Awesome Free 6.0.0 by @fontawesome - https://fontawesome.com License - https://fontawesome.com/license/free (Icons: CC BY 4.0, Fonts: SIL OFL 1.1, Code: MIT License) Copyright 2022 Fonticons, Inc.--><path d="M380.9 97.1C339 55.1 283.2 32 223.9 32c-122.4 0-222 99.6-222 222 0 39.1 10.2 77.3 29.6 111L0 480l117.7-30.9c32.4 17.7 68.9 27 106.1 27h.1c122.3 0 224.1-99.6 224.1-222 0-59.3-25.2-115-67.1-157zm-157 341.6c-33.2 0-65.7-8.9-94-25.7l-6.7-4-69.8 18.3L72 359.2l-4.4-7c-18.5-29.4-28.2-63.3-28.2-98.2 0-101.7 82.8-184.5 184.6-184.5 49.3 0 95.6 19.2 130.4 54.1 34.8 34.9 56.2 81.2 56.1 130.5 0 101.8-84.9 184.6-186.6 184.6zm101.2-138.2c-5.5-2.8-32.8-16.2-37.9-18-5.1-1.9-8.8-2.8-12.5 2.8-3.7 5.6-14.3 18-17.6 21.8-3.2 3.7-6.5 4.2-12 1.4-32.6-16.3-54-29.1-75.5-66-5.7-9.8 5.7-9.1 16.3-30.3 1.8-3.7.9-6.9-.5-9.7-1.4-2.8-12.5-30.1-17.1-41.2-4.5-10.8-9.1-9.3-12.5-9.5-3.2-.2-6.9-.2-10.6-.2-3.7 0-9.7 1.4-14.8 6.9-5.1 5.6-19.4 19-19.4 46.3 0 27.3 19.9 53.7 22.6 57.4 2.8 3.7 39.1 59.7 94.8 83.8 35.2 15.2 49 16.5 66.6 13.9 10.7-1.6 32.8-13.4 37.4-26.4 4.6-13 4.6-24.1 3.2-26.4-1.3-2.5-5-3.9-10.5-6.6z"/></symbol></svg>