<svg viewBox="0 0 209 201" xmlns="http://www.w3.org/2000/svg"><path d="M194.95 60.193a7.488 7.488 0 0 1-5.335-2.145 7.46 7.46 0 0 1-2.255-5.289c-.043-4.142 3.292-7.547 7.434-7.59a7.403 7.403 0 0 1 5.335 2.145 7.465 7.465 0 0 1 2.255 5.29c.043 4.141-3.292 7.546-7.434 7.59Zm-81.239 29.435a7.46 7.46 0 0 1-5.288 2.254 7.472 7.472 0 0 1-5.335-2.145 7.46 7.46 0 0 1-2.255-5.289 7.461 7.461 0 0 1 2.145-5.334 7.46 7.46 0 0 1 5.29-2.255 7.42 7.42 0 0 1 5.333 2.145 7.457 7.457 0 0 1 2.255 5.29 7.461 7.461 0 0 1-2.145 5.334Zm-60.768 59.19L18.03 122.24l79.115-30.307a13.662 13.662 0 0 0 1.745 2.091 13.415 13.415 0 0 0 6.362 3.49l-3.694 33.371-48.614 17.933Zm151.384-105.79c-2.579-2.525-5.98-3.904-9.595-3.859-3.863.04-7.326 1.715-9.764 4.348L163.986 30.94l-37.389 11.562-14.126 29a13.534 13.534 0 0 0-4.267-.643 13.427 13.427 0 0 0-9.513 4.057 13.425 13.425 0 0 0-3.858 9.595c.006.617.068 1.223.155 1.823L5.825 120.49l46.105 35.098 55.183-20.357 4.17-37.673a13.426 13.426 0 0 0 6.715-3.732 13.422 13.422 0 0 0 3.858-9.596 13.424 13.424 0 0 0-4.056-9.513c-.05-.048-.104-.089-.154-.137l13.207-27.115 32.346-10 18.761 11.244a13.448 13.448 0 0 0-.6 4.112c.038 3.61 1.478 6.891 4.057 9.416C187.961 64.73 191.313 66 194.87 66h.143c7.451 0 13.45-6.105 13.372-13.555-.038-3.609-1.478-6.89-4.057-9.417ZM51.123 183.392l-1.431 1.431c-.228-.03-.456-.067-.691-.067-.234 0-.462.036-.69.067l-1.431-1.43-4.242 4.241 1.43 1.431c-.031.23-.067.456-.067.691 0 .234.036.462.068.69l-1.431 1.431 4.242 4.243 1.43-1.432c.229.032.457.068.69.068.236 0 .464-.036.692-.068l1.43 1.432 4.243-4.243-1.431-1.43c.032-.229.067-.457.067-.69 0-.236-.035-.463-.067-.692l1.43-1.43-4.241-4.243Zm16-128-1.431 1.431c-.228-.03-.456-.067-.691-.067-.234 0-.462.036-.69.067l-1.431-1.43-4.242 4.241 1.43 1.431c-.031.23-.067.456-.067.691 0 .234.036.462.068.69l-1.431 1.431 4.242 4.243 1.43-1.432c.229.032.457.068.69.068.236 0 .464-.036.692-.068l1.43 1.432 4.243-4.243-1.431-1.43c.032-.229.067-.457.067-.69 0-.236-.035-.463-.067-.692l1.43-1.43-4.241-4.243Zm93 63-1.431 1.431c-.228-.03-.456-.067-.691-.067-.234 0-.462.036-.69.067l-1.431-1.43-4.242 4.241 1.43 1.431c-.031.23-.067.456-.067.691 0 .234.036.462.068.69l-1.431 1.431 4.242 4.243 1.43-1.432c.229.032.457.068.69.068.236 0 .464-.036.692-.068l1.43 1.432 4.243-4.243-1.431-1.43c.032-.229.067-.457.067-.69 0-.236-.035-.463-.067-.692l1.43-1.43-4.241-4.243ZM23 168a3 3 0 1 0 0 6 3 3 0 0 0 0-6ZM9.52 63c2.1 0 4.129-.693 5.813-2.003a9.436 9.436 0 0 0 3.594-6.32 9.433 9.433 0 0 0-1.928-7.01 9.437 9.437 0 0 0-6.32-3.595 9.438 9.438 0 0 0-7.01 1.929A9.435 9.435 0 0 0 .075 52.32a9.437 9.437 0 0 0 1.928 7.011 9.438 9.438 0 0 0 6.32 3.594c.4.05.8.075 1.197.075Zm-2.781-7.353a3.476 3.476 0 0 1-.71-2.583 3.477 3.477 0 0 1 1.324-2.328 3.473 3.473 0 0 1 2.582-.71 3.473 3.473 0 0 1 2.328 1.324c.574.738.827 1.655.71 2.583a3.476 3.476 0 0 1-1.323 2.328 3.476 3.476 0 0 1-2.583.71 3.477 3.477 0 0 1-2.328-1.324ZM60 9.974V12h6V9.974A5.02 5.02 0 0 0 66.975 9h2.026V3h-2.026a4.998 4.998 0 0 0-.974-.975V0h-6v2.025a4.998 4.998 0 0 0-.974.975h-2.026v6h2.026c.28.368.605.695.974.974ZM184.501 162c-10.752 0-19.5 8.748-19.5 19.5s8.748 19.5 19.5 19.5 19.5-8.748 19.5-19.5-8.748-19.5-19.5-19.5Zm0 33c-7.444 0-13.5-6.056-13.5-13.5s6.056-13.5 13.5-13.5 13.5 6.056 13.5 13.5-6.056 13.5-13.5 13.5Zm-1.5-181a3 3 0 1 0 0-6 3 3 0 0 0 0 6Z" fill="#158AFF" fill-opacity=".4" fill-rule="evenodd"/></svg>